:SAMPLES-PER-SECOND 30
:FULLY-SPECIFIED
:DEGREES
173
root  -12.5475 34.9136 -22.6142 -12.9565 -70.9871 6.20245
RightUpLeg  -11.5747 -9.83838 -22.2289
RightLeg  49.9252 -9.18718 -11.8619
RightFoot  -15.0986 0.694726 24.0521
RightToes  6.35927e-011 1.30204e-014 -6.03759e-014
Spine  19.6439 -0.646138 1.92108
Spine1  -0.404025 1.19162 -6.68031
HEad  -20.5397 44.496 -24.5592
LeftShoulder1  1.66635 -4.03344 -15.2938
LeftArm  7.25348 -1.36914 -59.0877
LeftForeArm  65.0395 -76.6271 -42.1568
LeftHand  -12.5704 28.4262 -54.834
RightShoulder  1.01412 1.0705 15.4662
RightArm  -5.39518 -9.54347 54.7159
RightForeArm  121.956 81.609 79.2653
RightHand  -3.05899 -11.9757 47.6403
LeftUpLeg  -29.0773 25.1446 24.3124
LeftLeg  71.3661 -3.2468 -9.68714
LeftFoot  13.7684 6.38139 -28.4991
LeftToes  7.40077e-010 7.2695e-011 -6.03601e-011
174
root  -12.7048 35.4777 -21.4353 -24.0635 -67.9747 17.301
RightUpLeg  -6.93195 -10.4087 -29.5073
RightLeg  44.805 -10.1134 -10.9043
RightFoot  -11.696 -0.00650559 26.098
RightToes  6.35927e-011 1.30204e-014 -6.03759e-014
Spine  18.286 -0.371816 3.97952
Spine1  0.278842 1.89862 -8.18571
HEad  -19.6341 50.9707 -27.9157
LeftShoulder1  1.45388 -3.02438 -15.4708
LeftArm  -1.68848 0.856928 -55.2747
LeftForeArm  75.7083 -78.839 -54.5841
LeftHand  -11.2368 28.417 -49.3179
RightShoulder  0.975054 1.00111 14.8865
RightArm  -2.69285 -9.1799 56.4239
RightForeArm  136.684 81.6151 96.5329
RightHand  -2.46453 -10.8887 46.0635
LeftUpLeg  -29.3902 29.4059 18.5197
LeftLeg  68.7507 -4.46949 -11.8965
LeftFoot  11.7435 5.93866 -28.859
LeftToes  7.40077e-010 7.2695e-011 -6.03601e-011
175
root  -12.8789 36.2357 -20.0897 -29.7655 -64.5102 22.9819
RightUpLeg  -1.13318 -10.1974 -35.4152
RightLeg  37.4594 -12.8839 -10.5808
RightFoot  -5.83623 -1.4113 27.9101
RightToes  6.35927e-011 1.30204e-014 -6.03759e-014
Spine  16.6768 -0.515822 6.44772
Spine1  0.0147361 2.07989 -9.23759
HEad  -15.7498 55.8022 -28.1018
LeftShoulder1  1.25307 -2.05918 -15.7375
LeftArm  -9.26029 2.57817 -52.1676
LeftForeArm  94.8811 -80.459 -68.5248
LeftHand  -6.37731 23.0094 -37.3436
RightShoulder  0.894137 0.738708 14.263
RightArm  -0.941263 -9.96425 57.7749
RightForeArm  155.836 80.778 115.697
RightHand  -1.13845 -8.23516 37.9609
LeftUpLeg  -27.0957 31.605 13.6732
LeftLeg  60.7779 -5.35429 -9.7704
LeftFoot  13.5803 6.17741 -27.9379
LeftToes  7.40077e-010 7.2695e-011 -6.03601e-011
176
root  -13.0281 37.0584 -18.7861 -33.7322 -61.9961 27.8055
RightUpLeg  2.67335 -6.52886 -38.7406
RightLeg  31.0572 -20.3142 -12.8867
RightFoot  2.07095 -3.18839 26.9725
RightToes  6.35927e-011 1.30204e-014 -6.03759e-014
Spine  14.9016 -0.446525 9.64541
Spine1  -1.20147 2.6793 -12.7566
HEad  -10.2318 58.4172 -25.825
LeftShoulder1  1.07232 -1.26797 -15.6711
LeftArm  -14.6885 3.32367 -49.7491
LeftForeArm  114.149 -81.3035 -80.2226
LeftHand  -2.46168 17.1932 -22.3509
RightShoulder  0.791617 0.336433 13.7636
RightArm  0.404759 -12.1698 58.5006
RightForeArm  176.024 78.5405 134.234
RightHand  0.174367 -4.18616 22.494
LeftUpLeg  -22.4648 30.9005 9.48223
LeftLeg  48.5396 -8.05844 -9.03888
LeftFoot  19.441 6.67854 -24.3706
LeftToes  7.40077e-010 7.2695e-011 -6.03601e-011
177
root  -13.1314 37.7015 -17.5287 -37.2634 -60.8279 33.1638
RightUpLeg  3.10386 -2.14857 -40.369
RightLeg  28.2721 -31.49 -17.127
RightFoot  10.5289 -4.17703 21.873
RightToes  6.35927e-011 1.30204e-014 -6.03759e-014
Spine  13.0388 0.117291 12.8442
Spine1  -2.67426 3.70699 -17.3676
HEad  -5.79936 59.6797 -23.6863
LeftShoulder1  0.882968 -0.512054 -15.1309
LeftArm  -18.8806 3.33431 -47.841
LeftForeArm  133.084 -81.5482 -95.018
LeftHand  -1.01063 14.7303 -11.519
RightShoulder  0.722963 0.0617099 13.3982
RightArm  1.3238 -13.8658 58.3207
RightForeArm  -169.064 74.5228 148.633
RightHand  0.247942 -2.09864 7.69778
LeftUpLeg  -16.6685 25.7913 5.62752
LeftLeg  36.0345 -13.1696 -9.80685
LeftFoot  21.1269 6.66823 -23.1035
LeftToes  7.40077e-010 7.2695e-011 -6.03601e-011
178
root  -13.1971 37.9653 -16.2361 -41.1273 -61.3251 39.1017
RightUpLeg  1.14218 -1.0147 -42.1373
RightLeg  27.6729 -40.9674 -20.5962
RightFoot  16.7604 -3.74799 15.2918
RightToes  6.35927e-011 1.30204e-014 -6.03759e-014
Spine  11.6195 0.948824 15.0914
Spine1  -4.3955 4.61168 -20.0959
HEad  -3.56775 61.0199 -22.9562
LeftShoulder1  0.688828 0.271949 -14.3984
LeftArm  -23.122 3.98488 -46.2466
LeftForeArm  153.623 -80.7083 -115.42
LeftHand  -0.761997 14.8301 -8.06962
RightShoulder  0.724945 0.142262 12.9619
RightArm  1.64719 -13.0383 57.627
RightForeArm  -162.143 70.2726 156.467
RightHand  0.0262348 -2.32811 1.14171
LeftUpLeg  -11.729 18.1408 2.04934
LeftLeg  27.5163 -14.1252 -7.60058
LeftFoot  13.8379 5.51307 -24.751
LeftToes  7.40077e-010 7.2695e-011 -6.03601e-011
179
root  -13.2087 37.8692 -15.0477 -47.6542 -63.3969 47.1711
RightUpLeg  -2.04346 -2.74527 -44.5835
RightLeg  26.175 -44.0411 -20.5175
RightFoot  19.264 -3.11886 11.8238
RightToes  6.35927e-011 1.30204e-014 -6.03759e-014
Spine  11.5109 1.89279 15.7919
Spine1  -6.09283 5.40633 -21.1318
HEad  -3.33725 62.4546 -23.4533
LeftShoulder1  0.564451 0.809629 -14.0042
LeftArm  -27.0949 5.54859 -44.7696
LeftForeArm  166.119 -79.1801 -129.233
LeftHand  -1.01996 16.8254 -8.99603
RightShoulder  0.751818 0.392073 12.2974
RightArm  1.29088 -10.1954 57.6912
RightForeArm  -159.809 68.0849 159.163
RightHand  0.00809425 -2.95429 1.24903
LeftUpLeg  -8.80846 14.7328 -1.28584
LeftLeg  24.4559 -9.39975 -4.27285
LeftFoot  4.25237 3.50124 -25.2965
LeftToes  7.40077e-010 7.2695e-011 -6.03601e-011
180
root  -13.1568 37.5456 -14.1253 -57.181 -65.9227 57.1646
RightUpLeg  -5.65361 -4.6225 -46.9471
RightLeg  24.4022 -40.8727 -18.0822
RightFoot  20.166 -3.20532 11.827
RightToes  6.35927e-011 1.30204e-014 -6.03759e-014
Spine  12.628 2.59222 15.5579
Spine1  -6.77542 6.187 -21.9719
HEad  -4.67509 62.6587 -24.8772
LeftShoulder1  0.544135 0.924985 -14.1574
LeftArm  -29.5658 6.75806 -43.8224
LeftForeArm  167.435 -78.7614 -131.471
LeftHand  -1.38852 19.7526 -9.89964
RightShoulder  0.746242 0.441958 11.8671
RightArm  0.698516 -7.58112 58.7872
RightForeArm  -158.547 68.0953 159.242
RightHand  0.0305221 -3.46275 3.10592
LeftUpLeg  -7.65194 16.9466 -3.4535
LeftLeg  25.6163 -5.60835 -2.57153
LeftFoot  -2.25702 1.95588 -24.1255
LeftToes  7.40077e-010 7.2695e-011 -6.03601e-011
181
root  -13.0893 37.1183 -13.5165 -65.5585 -67.8486 65.0184
RightUpLeg  -8.54029 -5.52255 -48.207
RightLeg  24.5345 -36.2549 -16.5609
RightFoot  20.9994 -3.42882 12.2931
RightToes  6.35927e-011 1.30204e-014 -6.03759e-014
Spine  13.7993 2.49288 14.7043
Spine1  -6.19173 6.27566 -22.2366
HEad  -5.601 60.2681 -25.7182
LeftShoulder1  0.613661 0.644412 -14.5559
LeftArm  -30.338 7.42244 -44.1679
LeftForeArm  161.771 -79.4634 -126.496
LeftHand  -1.67782 21.9174 -10.4059
RightShoulder  0.73688 0.316311 12.2935
RightArm  0.280075 -6.60636 59.6427
RightForeArm  -158.125 69.053 158.264
RightHand  0.00405707 -4.53948 4.43936
LeftUpLeg  -7.73141 18.4187 -3.89513
LeftLeg  29.044 -3.88918 -1.97051
LeftFoot  -6.37379 1.05411 -23.2328
LeftToes  7.40077e-010 7.2695e-011 -6.03601e-011
182
root  -13.0681 36.6519 -13.1567 -70.3575 -69.6023 68.8638
RightUpLeg  -10.409 -6.70528 -48.0306
RightLeg  26.299 -32.3747 -16.2132
RightFoot  20.5441 -3.64477 13.2333
RightToes  6.35927e-011 1.30204e-014 -6.03759e-014
Spine  14.3528 1.62555 12.8378
Spine1  -5.3405 5.21889 -20.8582
HEad  -3.73742 54.3653 -23.8374
LeftShoulder1  0.79064 -0.0769996 -15.2222
LeftArm  -30.0914 8.6241 -45.5509
LeftForeArm  154.551 -80.0842 -120.593
LeftHand  -2.17579 23.1601 -12.6818
RightShoulder  0.790204 0.375407 13.4821
RightArm  0.0596226 -7.2834 59.4411
RightForeArm  -159.913 70.9486 155.733
RightHand  -0.0488087 -5.65076 6.02223
LeftUpLeg  -8.34145 16.5459 -3.16917
LeftLeg  33.4024 -2.04433 -1.05801
LeftFoot  -10.3731 0.262331 -23.782
LeftToes  7.40077e-010 7.2695e-011 -6.03601e-011
183
root  -13.1012 36.2092 -13.0441 -76.7225 -71.7985 74.0799
RightUpLeg  -12.8698 -8.84861 -46.8451
RightLeg  29.2683 -27.3087 -15.6932
RightFoot  18.5641 -4.30448 16.5205
RightToes  6.35927e-011 1.30204e-014 -6.03759e-014
Spine  14.9413 0.835287 9.33077
Spine1  -4.9004 3.78551 -18.4594
HEad  -0.0338297 44.4653 -19.579
LeftShoulder1  1.06248 -1.07177 -16.4782
LeftArm  -28.9451 10.1744 -47.0614
LeftForeArm  147.99 -80.4557 -115.555
LeftHand  -2.90861 24.5298 -15.908
RightShoulder  0.892215 0.639312 14.7758
RightArm  0.0623291 -9.13127 58.6267
RightForeArm  -165.358 74.2172 149.738
RightHand  -0.109053 -6.28421 8.79495
LeftUpLeg  -8.10415 15.033 -1.63364
LeftLeg  36.9758 0.394145 0.716146
LeftFoot  -14.2457 -0.550388 -24.7441
LeftToes  7.40077e-010 7.2695e-011 -6.03601e-011
184
root  -13.1358 35.8519 -13.2435 -89.8262 -74.1145 85.6428
RightUpLeg  -17.2455 -11.4228 -44.9433
RightLeg  34.0313 -20.4543 -14.4215
RightFoot  18.1067 -5.1104 19.7325
RightToes  6.35927e-011 1.30204e-014 -6.03759e-014
Spine  16.1672 0.787679 4.1392
Spine1  -4.47633 2.81982 -15.8257
HEad  2.65857 30.9933 -14.7032
LeftShoulder1  1.34562 -1.97552 -17.9525
LeftArm  -26.4581 10.7152 -48.5905
LeftForeArm  138.352 -80.9278 -107.047
LeftHand  -3.63523 25.9351 -18.5624
RightShoulder  0.957061 0.778355 15.6746
RightArm  -0.0975847 -11.6929 57.7713
RightForeArm  -175.379 77.6404 139.483
RightHand  -0.407455 -8.08373 13.8718
LeftUpLeg  -6.1636 15.6341 0.94718
LeftLeg  38.7664 2.6312 2.66996
LeftFoot  -16.931 -1.16537 -25.5385
LeftToes  7.40077e-010 7.2695e-011 -6.03601e-011
185
root  -13.1502 35.6624 -13.7651 -105.66 -76.4766 99.6502
RightUpLeg  -22.1346 -14.382 -41.5335
RightLeg  40.1192 -14.3532 -12.872
RightFoot  21.4718 -5.23649 18.2494
RightToes  6.35927e-011 1.30204e-014 -6.03759e-014
Spine  17.5944 1.13866 -1.9096
Spine1  -3.90611 1.86085 -11.9895
HEad  3.36141 15.4675 -9.68364
LeftShoulder1  1.60234 -2.77483 -18.9926
LeftArm  -22.5962 9.90903 -50.3514
LeftForeArm  124.135 -81.2665 -93.5992
LeftHand  -4.62753 26.2159 -23.3523
RightShoulder  0.967375 0.748669 16.11
RightArm  -1.4868 -14.5025 56.8268
RightForeArm  170.678 80.0068 125.813
RightHand  -1.26813 -11.3794 21.9622
LeftUpLeg  -3.22991 15.5708 5.06656
LeftLeg  39.0611 4.32952 4.17677
LeftFoot  -18.234 -1.54455 -26.9667
LeftToes  7.40077e-010 7.2695e-011 -6.03601e-011
186
root  -13.1722 35.7296 -14.5416 -119.07 -80.0666 111.644
RightUpLeg  -25.3004 -18.1904 -35.971
RightLeg  45.2804 -9.61643 -10.5242
RightFoot  25.5672 -4.30198 13.3624
RightToes  6.35927e-011 1.30204e-014 -6.03759e-014
Spine  18.6366 1.05534 -7.52072
Spine1  -3.53133 0.127696 -5.86073
HEad  3.05635 0.0338545 -4.25031
LeftShoulder1  1.86695 -3.6247 -19.7129
LeftArm  -17.6438 8.39386 -51.6618
LeftForeArm  108.708 -81.0947 -77.6991
LeftHand  -5.81418 24.5394 -31.9596
RightShoulder  0.999604 0.8377 16.4076
RightArm  -4.53361 -16.9655 55.6087
RightForeArm  147.81 81.6414 102.424
RightHand  -2.22365 -13.2461 30.1126
LeftUpLeg  -0.950966 12.9516 10.6168
LeftLeg  38.5362 6.03733 5.54386
LeftFoot  -17.8499 -1.59042 -29.282
LeftToes  7.40077e-010 7.2695e-011 -6.03601e-011
187
root  -13.2439 36.12 -15.5436 -148.294 -84.3586 140.202
RightUpLeg  -26.3589 -21.9139 -28.2427
RightLeg  47.9085 -4.99818 -6.24044
RightFoot  26.2838 -3.43822 10.6109
RightToes  6.35927e-011 1.30204e-014 -6.03759e-014
Spine  19.1104 0.489431 -11.8345
Spine1  -3.03283 -2.00875 1.52237
HEad  2.86066 -13.3838 1.61749
LeftShoulder1  2.08932 -4.35184 -20.1583
LeftArm  -12.0379 6.70151 -51.9999
LeftForeArm  95.6411 -80.3755 -64.0185
LeftHand  -6.06295 20.6598 -41.4887
RightShoulder  1.09056 1.10173 17.1176
RightArm  -8.25363 -18.3678 54.0559
RightForeArm  112.591 81.1292 66.07
RightHand  -3.02892 -14.3148 35.5388
LeftUpLeg  0.467659 9.8168 17.665
LeftLeg  36.824 7.92789 6.71731
LeftFoot  -14.5878 -0.826588 -31.5115
LeftToes  7.40077e-010 7.2695e-011 -6.03601e-011
